<svg width="300" height="274" viewBox="0 0 300 274" fill="none" xmlns="http://www.w3.org/2000/svg">
<g clip-path="url(#clip0_4345_72)">
<path d="M1.74365 146.5L150.744 1.5L297.744 146.5" stroke="#6C5BE5" stroke-width="5"/>
<path d="M46.7437 263.5H257.244V53.5" stroke="#6C5BE5" stroke-width="5"/>
<path d="M71.7437 130L145.244 56.5" stroke="#3DBE59" stroke-width="5"/>
<path d="M233.244 130L159.744 56.5" stroke="#3DBE59" stroke-width="5"/>
<path d="M57.7437 126.5L63.2437 121.5H163.244H240.244L245.244 130V229L242.744 233.5L233.744 237.5L220.244 239.5L203.744 241.5H151.244H126.744H113.244H100.744L86.7437 239.5L76.7437 237.5L68.2437 235.5L61.2437 233.5L57.7437 229V126.5Z" stroke="#3DBE59" stroke-width="5"/>
<path d="M245.5 214.5V186M245.5 214.5H221M245.5 214.5V162M85 138H58V162M85 138V214.5M85 138H114M85 138V241M85 214.5H58V186M85 214.5H114M58 186H245.5M58 186V162M245.5 186V162M114 214.5V138M114 214.5H151.5M114 138H151.5M114 138V243.5M151.5 138V214.5M151.5 138H188.5M151.5 138V243.5M151.5 214.5H188.5M188.5 214.5V138M188.5 214.5H221M188.5 138H221M188.5 138V243.5M221 138H245.5V162M221 138V214.5M221 138V241M245.5 162H58" stroke="#3DBE59" stroke-width="5"/>
<circle cx="146" cy="55" r="5" fill="#3BBF58"/>
<circle cx="72" cy="130" r="5" fill="#3BBF58"/>
<circle cx="233" cy="130" r="5" fill="#3BBF58"/>
<circle cx="158" cy="55" r="5" fill="#3BBF58"/>
</g>
<defs>
<clipPath id="clip0_4345_72">
<rect width="300" height="274" fill="white"/>
</clipPath>
</defs>
</svg>
