<svg width="345" height="345" viewBox="0 0 345 345" fill="none" xmlns="http://www.w3.org/2000/svg">
<path d="M172.466 330.821C251.828 330.821 316.165 292.659 316.165 245.585C316.165 198.51 251.828 160.349 172.466 160.349C93.1025 160.349 28.7661 198.51 28.7661 245.585C28.7661 292.659 93.1025 330.821 172.466 330.821Z" fill="#F0F0F0"/>
<path d="M88.5477 290.732C112.254 290.732 131.473 279.635 131.473 265.947C131.473 252.259 112.254 241.162 88.5477 241.162C64.8409 241.162 45.6228 252.259 45.6228 265.947C45.6228 279.635 64.8409 290.732 88.5477 290.732Z" fill="#E0E0E0"/>
<path d="M228.611 304.746C227.035 304.765 225.481 304.377 224.098 303.621L108.979 237.153C108.128 236.745 107.409 236.104 106.906 235.305C106.404 234.506 106.137 233.581 106.137 232.637C106.137 231.693 106.404 230.768 106.906 229.969C107.409 229.17 108.128 228.53 108.979 228.121L178.441 188.018C179.83 187.275 181.381 186.887 182.957 186.887C184.532 186.887 186.084 187.275 187.473 188.018L302.593 254.479C304.4 255.521 306.67 256.515 306.67 258.999C306.67 261.483 304.4 262.449 302.593 263.511L233.13 303.6C231.747 304.364 230.191 304.758 228.611 304.746Z" fill="#E0E0E0"/>
<path d="M285.998 231.067L277.49 226.161C277.49 226.161 274.73 212.886 276.593 199.569C279.719 176.875 292.042 173.48 296.748 175.088C301.454 176.695 302.841 182.16 295.085 193.379C290.49 199.997 284.915 213.776 285.998 231.067Z" fill="#37474F"/>
<path d="M280.651 223.65H280.706C280.816 223.633 280.915 223.573 280.982 223.485C281.049 223.396 281.078 223.284 281.065 223.174C278.587 205.703 285.55 186.528 293.422 178.779C293.461 178.741 293.492 178.695 293.513 178.645C293.533 178.594 293.544 178.54 293.544 178.486C293.544 178.431 293.533 178.377 293.513 178.327C293.492 178.277 293.461 178.231 293.422 178.193C293.384 178.153 293.339 178.122 293.289 178.1C293.238 178.079 293.184 178.068 293.129 178.068C293.074 178.068 293.02 178.079 292.97 178.1C292.919 178.122 292.874 178.153 292.836 178.193C284.818 186.079 277.718 205.572 280.23 223.298C280.245 223.398 280.296 223.489 280.373 223.554C280.451 223.618 280.55 223.653 280.651 223.65Z" fill="white"/>
<path d="M301.764 240.12C302.717 240.596 305.214 238.43 305.904 237.905C307.112 236.989 308.062 235.777 308.664 234.386C309.331 232.809 309.493 231.064 309.127 229.391C308.933 228.507 308.677 227.637 308.361 226.789L307.512 224.25C307.167 223.444 306.993 222.574 307.002 221.697C307.126 219.931 308.616 218.627 309.969 217.495C311.466 216.239 313.011 214.611 312.887 212.506C312.693 210.881 311.965 209.367 310.817 208.201C309.748 206.979 308.492 205.917 307.505 204.62C306.742 203.718 306.307 202.585 306.27 201.404C306.332 200.68 306.538 199.976 306.877 199.334C307.567 197.954 308.457 196.616 308.892 195.118C309.327 193.621 309.154 191.786 307.954 190.792C306.96 189.978 305.553 189.936 304.283 190.102C303.092 190.317 301.962 190.787 300.971 191.482C297.735 193.517 296.037 197.582 292.567 199.196C291.228 199.824 289.738 200.024 288.33 200.48C286.923 200.935 285.508 201.735 284.915 203.095C283.624 206.069 286.674 208.904 284.514 211.796C283.824 212.693 282.976 213.417 282.265 214.273C280.257 216.701 279.367 219.248 279.933 223.187C280.127 224.607 280.628 225.967 281.402 227.173C282.175 228.379 283.202 229.402 284.411 230.17C284.411 230.17 301.62 240.037 301.764 240.12Z" fill="#455A64"/>
<path d="M292.56 235.345C292.67 235.335 292.772 235.281 292.843 235.196C292.915 235.11 292.949 235 292.939 234.89C291.366 218.406 298.177 199.748 303.559 194.145C303.602 194.106 303.636 194.059 303.66 194.006C303.684 193.954 303.697 193.896 303.698 193.839C303.698 193.781 303.687 193.723 303.665 193.67C303.642 193.616 303.609 193.568 303.567 193.528C303.525 193.488 303.476 193.457 303.421 193.437C303.367 193.417 303.309 193.409 303.251 193.412C303.193 193.416 303.137 193.431 303.085 193.458C303.034 193.484 302.988 193.521 302.951 193.566C297.466 199.279 290.531 218.247 292.111 234.966C292.116 235.02 292.131 235.073 292.156 235.122C292.181 235.17 292.215 235.213 292.257 235.249C292.298 235.284 292.347 235.311 292.399 235.327C292.451 235.344 292.506 235.35 292.56 235.345Z" fill="white"/>
<path d="M294.126 215.004H294.25C298.108 213.717 302.094 212.854 306.139 212.43C306.248 212.418 306.349 212.364 306.418 212.279C306.488 212.193 306.521 212.084 306.512 211.975C306.508 211.92 306.494 211.867 306.469 211.818C306.445 211.769 306.41 211.725 306.368 211.69C306.326 211.654 306.278 211.628 306.225 211.611C306.173 211.595 306.118 211.59 306.063 211.595C301.946 212.029 297.888 212.908 293.961 214.217C293.858 214.258 293.775 214.336 293.73 214.437C293.685 214.538 293.681 214.652 293.719 214.756C293.752 214.835 293.809 214.901 293.882 214.946C293.956 214.99 294.041 215.011 294.126 215.004Z" fill="white"/>
<path d="M66.3091 254.155L71.698 252.216C72.3205 245.742 72.1978 239.218 71.3323 232.772C69.145 218.295 58.6501 205.979 49.6801 204.24C38.1157 202.018 39.8821 212.762 46.3888 217.557C56.7664 225.209 64.7152 236.67 66.3091 254.155Z" fill="#625BE9"/>
<g opacity="0.2">
<path d="M66.3091 254.155L71.698 252.216C72.3205 245.742 72.1978 239.218 71.3323 232.772C69.145 218.295 58.6501 205.979 49.6801 204.24C38.1157 202.018 39.8821 212.762 46.3888 217.557C56.7664 225.209 64.7152 236.67 66.3091 254.155Z" fill="black"/>
</g>
<path d="M68.9517 253.485H68.8896C68.8083 253.468 68.7311 253.435 68.6627 253.388C68.5942 253.341 68.5358 253.28 68.4909 253.21C68.446 253.14 68.4154 253.062 68.4009 252.98C68.3865 252.898 68.3884 252.815 68.4066 252.733C71.2977 239.485 61.0236 214.487 46.5612 207.069C46.4112 206.992 46.2978 206.859 46.246 206.699C46.1943 206.538 46.2084 206.364 46.2852 206.214C46.3621 206.064 46.4954 205.95 46.6559 205.898C46.8163 205.847 46.9908 205.861 47.1408 205.938C62.0448 213.583 72.6225 239.354 69.6417 253.002C69.6056 253.153 69.5155 253.286 69.3884 253.375C69.2612 253.464 69.1059 253.503 68.9517 253.485Z" fill="white"/>
<path d="M69.7521 252.913C70.0143 251.347 70.173 249.042 70.2213 248.476C70.4008 246.476 70.1659 244.461 69.5313 242.556C68.6924 240.036 67.0142 237.881 64.7772 236.449C63.5628 235.697 62.1345 235.139 61.3272 233.938C60.6372 232.903 60.6372 231.606 60.5199 230.384C60.3336 228.383 59.7678 226.244 58.2084 225.002C56.649 223.76 54.4893 223.622 52.5021 223.802C49.6386 224.023 46.9821 224.333 44.3256 222.953C42.2271 221.767 40.0563 220.714 37.8258 219.8C35.0037 218.737 28.6488 217.157 27.1929 221.125C27.0258 221.674 26.983 222.254 27.0677 222.822C27.1525 223.39 27.3626 223.932 27.6828 224.409C28.3287 225.357 29.1151 226.202 30.015 226.914L34.3689 230.757C34.8902 231.161 35.3363 231.654 35.6868 232.213C36.5148 233.717 35.8455 235.58 35.9904 237.291C36.0907 238.164 36.3796 239.004 36.8372 239.753C37.2947 240.503 37.9099 241.144 38.64 241.631C40.1052 242.603 41.8455 243.075 43.6011 242.977C45.9333 242.887 49.8111 241.204 51.1359 243.998C51.5085 244.944 51.714 245.948 51.7431 246.965C51.774 247.986 52.0791 248.98 52.6263 249.842C53.5233 251.029 55.1241 251.409 56.6007 251.602C58.6707 251.878 60.7959 251.954 62.7141 252.768C63.5007 253.099 63.9768 254.148 64.4253 254.838C65.8812 254.327 67.4958 253.789 69.7521 252.913Z" fill="#625BE9"/>
<path d="M67.2059 254.375C67.0978 254.365 66.9947 254.324 66.9082 254.259C66.8217 254.193 66.7552 254.104 66.716 254.003C61.4444 240.072 48.9071 228.935 31.4156 222.642C31.274 222.588 31.1592 222.48 31.0961 222.342C31.0329 222.204 31.0264 222.047 31.0779 221.904C31.1293 221.762 31.2348 221.645 31.3715 221.579C31.5081 221.513 31.6652 221.503 31.8089 221.552C49.6247 227.962 62.4035 239.34 67.7993 253.596C67.8512 253.739 67.8449 253.898 67.7817 254.037C67.7186 254.176 67.6036 254.285 67.4612 254.341C67.3791 254.368 67.2925 254.38 67.2059 254.375Z" fill="white"/>
<path d="M227.072 298.004L111.952 231.537C111.119 230.993 110.425 230.261 109.927 229.399C109.429 228.537 109.142 227.569 109.089 226.576V211.485C109.142 210.491 109.429 209.524 109.927 208.662C110.425 207.8 111.119 207.068 111.952 206.524L181.415 166.421C182.301 165.969 183.283 165.733 184.278 165.733C185.274 165.733 186.255 165.969 187.142 166.421L302.261 232.882C303.095 233.426 303.789 234.158 304.287 235.02C304.784 235.882 305.071 236.849 305.125 237.843V252.934C305.071 253.927 304.784 254.895 304.287 255.757C303.789 256.619 303.095 257.351 302.261 257.895L232.799 298.004C231.911 298.454 230.93 298.688 229.935 298.688C228.941 298.688 227.96 298.454 227.072 298.004Z" fill="#625BE9"/>
<path opacity="0.2" d="M305.125 237.843V252.94C305.071 253.933 304.783 254.899 304.286 255.76C303.788 256.621 303.095 257.352 302.261 257.895L232.799 297.997C231.919 298.469 230.933 298.707 229.936 298.687V276.98C230.933 276.997 231.919 276.759 232.799 276.29L302.261 236.187C303.745 235.332 303.841 233.986 302.551 233.068C303.305 233.626 303.927 234.343 304.372 235.168C304.817 235.993 305.074 236.907 305.125 237.843Z" fill="black"/>
<path opacity="0.1" d="M229.935 276.98V298.687C228.937 298.708 227.951 298.47 227.072 297.997L111.952 231.537C111.118 230.995 110.424 230.264 109.926 229.403C109.429 228.542 109.142 227.576 109.089 226.582V211.478C109.142 210.544 109.401 209.632 109.845 208.808C110.29 207.984 110.91 207.268 111.663 206.71C110.379 207.628 110.483 208.974 111.952 209.829L227.079 276.297C227.958 276.763 228.941 276.998 229.935 276.98Z" fill="black"/>
<path d="M302.261 236.187L232.799 276.297C231.911 276.746 230.93 276.98 229.936 276.98C228.941 276.98 227.96 276.746 227.072 276.297L111.952 209.829C110.372 208.918 110.372 207.435 111.952 206.524L181.415 166.421C182.301 165.969 183.283 165.733 184.278 165.733C185.274 165.733 186.255 165.969 187.142 166.421L302.261 232.882C303.841 233.793 303.841 235.29 302.261 236.187Z" fill="#625BE9"/>
<path d="M153.918 234.483C152.407 233.606 151 233.572 149.854 234.241C149.468 234.462 147.86 235.373 147.446 235.621C146.197 236.394 145.279 238.022 144.921 240.341C144.512 239.716 144.02 239.149 143.458 238.657L143.872 238.423C144.7 237.94 145.093 236.725 145.093 235.09C145.093 231.102 143.244 228.687 140.898 227.334L136.675 224.94L134.695 226.079V223.795L131.59 222.008L129.271 223.346V228.176L126.146 218.847L123.041 217.06L120.75 218.371V220.634C119.563 216.736 117.369 213.362 114.85 211.906C114.27 211.506 113.593 211.27 112.89 211.223C112.187 211.175 111.484 211.318 110.855 211.637L110.766 211.685L108.496 212.989C107.316 213.569 105.66 215.66 105.66 220.151C105.66 226.272 108.502 232.661 112.56 234.986C114.126 235.89 115.527 235.939 116.651 235.283C117.038 235.055 118.542 234.186 118.915 233.979C119.751 233.471 120.403 232.71 120.778 231.806V239.354L123.883 241.141L126.201 239.803V234.973L129.271 244.26L132.376 246.047L134.357 244.909V247.193L139.525 250.173C140.794 250.912 141.823 251.022 142.568 250.601C142.975 250.38 144.541 249.463 144.928 249.221C145.202 249.067 145.438 248.852 145.618 248.593C146.742 252.533 148.916 255.949 151.627 257.522C153.139 258.391 154.498 258.46 155.602 257.881C156.037 257.653 157.603 256.715 157.975 256.501C159.707 255.555 160.798 252.975 160.798 249.242C160.77 243.163 157.699 236.67 153.918 234.483ZM115.506 229.308C115.266 229.234 115.035 229.134 114.816 229.011C112.277 227.541 111.304 223.857 111.304 220.731C111.274 219.649 111.452 218.572 111.828 217.557C112.07 217.623 112.302 217.721 112.518 217.847C114.926 219.227 116.017 222.994 116.017 226.127C116.042 227.209 115.869 228.288 115.506 229.308ZM139.78 243.977V242.004C140.357 242.713 140.678 243.595 140.691 244.508L139.78 243.977ZM154.601 251.885C154.36 251.811 154.129 251.709 153.911 251.581C151.372 250.118 150.399 246.427 150.399 243.301C150.369 242.219 150.547 241.142 150.924 240.127C151.163 240.2 151.394 240.297 151.614 240.417C154.029 241.797 155.112 245.564 155.112 248.697C155.138 249.782 154.964 250.862 154.601 251.885Z" fill="#625BE9"/>
<path d="M224.767 284.97L227.031 283.687L229.08 281.451C227.893 278.553 226.23 276.214 223.836 274.834C222.408 274.013 221.124 273.951 220.075 274.503C219.641 274.737 218.005 275.683 217.619 275.917C216.817 276.439 216.194 277.192 215.832 278.077V270.597L212.727 268.803L210.408 270.142V274.972L207.262 265.65L204.157 263.863L202.17 265.015V262.724L199.072 260.937L196.753 262.269V264.677C195.546 260.861 193.303 257.618 190.833 256.176L186.886 253.899L184.575 255.238V270.377L181.746 263.518L182.85 262.89C183.809 262.352 184.395 260.958 184.395 258.681C184.395 254.541 182.477 251.346 179.952 249.89L175.087 247.082L172.762 248.4V259.868L169.05 243.57L166.179 241.914L163.861 243.253L158.341 261.048L161.674 262.973L163.992 261.634L164.358 260.323L167.863 262.352L168.87 267.12L172.203 269.045L172.734 268.741V269.355L175.839 271.142L178.158 269.804V268.817L179.993 273.544L183.94 275.821L184.554 275.469V276.159L188.494 278.443C190.04 279.333 191.482 279.416 192.634 278.781L195.035 277.401C195.775 276.933 196.363 276.259 196.726 275.462V283.217L199.824 285.005L201.804 283.866V286.15L204.909 287.944L207.228 286.605V281.775L210.353 291.097L213.458 292.891L215.777 291.553V289.324C216.936 293.153 219.04 296.493 221.462 297.894C222.842 298.694 224.298 298.915 225.464 298.253C225.858 298.032 227.341 297.149 227.714 296.948C228.825 296.362 229.701 295.003 230.067 292.608V288.061L224.767 284.97ZM178.537 258.364L178.179 258.15V255.99C178.61 256.752 178.823 257.619 178.793 258.495V258.557L178.537 258.364ZM189.991 263.29C191.345 265.272 192.067 267.618 192.061 270.018C192.09 271.05 191.895 272.077 191.489 273.026C191.139 272.954 190.804 272.826 190.495 272.647L190.019 272.364L189.991 263.29ZM224.622 291.256C224.628 291.667 224.582 292.078 224.484 292.477C224.311 292.419 224.145 292.342 223.988 292.25C223.05 291.604 222.313 290.707 221.862 289.662L224.622 291.256ZM223.808 284.418L221.49 285.777V288.834C220.861 287.236 220.533 285.535 220.524 283.818C220.485 282.635 220.704 281.458 221.166 280.368C221.34 280.423 221.509 280.494 221.669 280.582C222.856 281.272 223.884 282.583 224.671 284.922L223.808 284.418Z" fill="#625BE9"/>
<path opacity="0.2" d="M151.6 235.821C155.381 238.002 158.452 244.502 158.452 250.622C158.452 254.355 157.361 256.935 155.623 257.881C156.112 257.619 157.589 256.742 157.948 256.542C159.68 255.597 160.77 253.016 160.77 249.283C160.77 243.163 157.699 236.663 153.918 234.483C152.407 233.607 151 233.572 149.854 234.241C149.468 234.462 147.86 235.373 147.446 235.621C148.591 234.911 150.04 234.918 151.6 235.821Z" fill="black"/>
<path opacity="0.3" d="M139.78 243.977V242.004C139.385 241.567 138.918 241.201 138.4 240.921L137.427 240.362V245.316L138.4 245.875C139.87 246.724 140.677 246.503 140.677 244.854C140.677 244.73 140.677 244.619 140.677 244.502L139.78 243.977Z" fill="black"/>
<path opacity="0.2" d="M129.244 236.297L129.271 236.318V228.149L126.146 218.827L123.041 217.04L120.729 218.378L123.827 220.165L129.244 236.297Z" fill="black"/>
<path opacity="0.1" d="M123.827 220.165L126.146 218.827L129.271 228.149V236.318L123.827 220.165Z" fill="black"/>
<path opacity="0.3" d="M139.773 235.187C139.782 234.493 139.591 233.811 139.224 233.221C138.858 232.632 138.33 232.16 137.703 231.861L137.455 231.723V236.243L137.703 236.388C139.042 237.16 139.773 236.94 139.773 235.187Z" fill="black"/>
<path opacity="0.2" d="M144.9 240.355C144.498 239.727 144.007 239.16 143.444 238.671L143.872 238.423C144.686 237.94 145.079 236.732 145.079 235.104C145.079 231.116 143.23 228.701 140.884 227.348L136.675 224.94L134.695 226.079V223.795L131.59 222.008L129.271 223.346L132.376 225.134V246.096L134.357 244.957V226.244L138.58 228.687C140.926 230.067 142.775 232.448 142.775 236.443C142.775 238.368 142.23 239.706 141.07 239.955C142.775 241.397 143.975 243.536 143.975 246.917C143.975 248.835 143.472 250.125 142.547 250.629C142.954 250.408 144.52 249.491 144.907 249.249C145.182 249.095 145.418 248.88 145.597 248.621C145.042 246.699 144.756 244.709 144.748 242.708C144.739 241.921 144.79 241.134 144.9 240.355Z" fill="black"/>
<path opacity="0.3" d="M153.918 251.581C151.379 250.118 150.406 246.427 150.406 243.301C150.376 242.219 150.554 241.142 150.931 240.127C151.034 240.162 151.138 240.196 151.248 240.244C149.102 239.299 148.088 241.68 148.088 244.64C148.088 247.765 149.061 251.457 151.6 252.92C153.111 253.789 154.077 253.189 154.601 251.885C154.363 251.81 154.133 251.709 153.918 251.581Z" fill="black"/>
<path opacity="0.2" d="M114.823 211.906C113.339 211.051 111.966 211.002 110.835 211.623L110.704 211.699L108.489 212.969C108.867 212.758 109.281 212.62 109.71 212.562C110.697 212.475 111.684 212.718 112.518 213.252C116.293 215.439 119.363 221.932 119.363 228.059C119.363 231.758 118.287 234.324 116.603 235.29C116.99 235.063 118.487 234.193 118.859 233.986C119.698 233.479 120.353 232.718 120.729 231.813V220.628C119.536 216.729 117.335 213.355 114.823 211.906Z" fill="black"/>
<path opacity="0.3" d="M111.311 220.731C111.28 219.65 111.459 218.572 111.835 217.557C111.941 217.588 112.045 217.625 112.146 217.668C110 216.729 108.992 219.103 108.992 222.07C108.992 225.196 109.965 228.88 112.505 230.35C114.009 231.219 114.975 230.612 115.506 229.308C115.266 229.234 115.035 229.135 114.816 229.011C112.284 227.542 111.311 223.857 111.311 220.731Z" fill="black"/>
<path opacity="0.2" d="M181.753 263.518L182.85 262.89C183.809 262.352 184.396 260.958 184.396 258.681C184.396 254.541 182.477 251.347 179.952 249.891L175.088 247.083L172.762 248.4L177.634 251.209C180.152 252.665 182.07 255.88 182.07 259.999C182.07 263.146 180.946 264.609 179.31 264.457L183.995 275.828L184.609 275.476V270.356L181.753 263.518Z" fill="black"/>
<path opacity="0.3" d="M221.173 280.382L221.4 280.464C219.62 279.699 218.212 281.7 218.212 285.156C218.212 288.613 219.765 292.505 221.662 293.609C222.877 294.299 224.077 294.016 224.478 292.498C224.305 292.439 224.138 292.363 223.981 292.27C223.043 291.625 222.306 290.728 221.856 289.683L221.483 289.462V288.834C220.854 287.236 220.526 285.535 220.517 283.818C220.484 282.638 220.708 281.466 221.173 280.382Z" fill="black"/>
<path opacity="0.2" d="M190.84 256.176L186.893 253.899L184.582 255.238L188.522 257.515C192.255 259.668 195.387 265.85 195.387 271.95C195.387 275.69 194.221 278.091 192.462 278.912L192.669 278.822L195.07 277.442C195.81 276.974 196.398 276.3 196.76 275.503V264.677C195.553 260.862 193.331 257.619 190.84 256.176Z" fill="black"/>
<path opacity="0.3" d="M189.998 272.385V263.311C189.515 262.611 188.89 262.021 188.163 261.579L187.68 261.303V273.723L188.163 273.999C189.64 274.855 190.813 274.406 191.468 273.047C191.119 272.975 190.783 272.847 190.474 272.668L189.998 272.385Z" fill="black"/>
<path opacity="0.3" d="M175.867 271.17L178.186 269.832V268.845L175.867 262.89V271.17Z" fill="black"/>
<path opacity="0.2" d="M204.944 266.996L210.353 283.135L210.388 283.155V274.986L207.262 265.657L204.157 263.87L202.177 265.015V262.725L199.079 260.938L196.76 262.276L199.859 264.063V285.025L201.839 283.887V265.209L204.944 266.996Z" fill="black"/>
<path opacity="0.3" d="M162.709 259.385L161.701 262.994L164.02 261.662L164.386 260.351L162.709 259.385Z" fill="black"/>
<path opacity="0.3" d="M165.283 250.581L163.765 255.804L166.835 257.577L165.317 250.601L165.283 250.581Z" fill="black"/>
<path opacity="0.3" d="M204.944 274.952V287.958V287.965L207.262 286.626V281.783L204.978 274.972L204.944 274.952Z" fill="black"/>
<path opacity="0.2" d="M215.811 278.07V270.598L212.706 268.804L210.388 270.142L213.493 271.936V292.899L215.811 291.56V289.331C215.2 287.35 214.881 285.291 214.866 283.218C214.81 281.454 215.133 279.699 215.811 278.07Z" fill="black"/>
<path opacity="0.2" d="M169.057 243.605L166.18 241.942L163.868 243.28L166.739 244.936L172.231 269.073L172.762 268.769V259.889L169.057 243.605Z" fill="black"/>
<path opacity="0.3" d="M178.186 258.17V255.99C177.693 255.255 177.018 254.661 176.226 254.265L175.867 254.058V259.578L176.226 259.785C177.385 260.475 178.772 261.165 178.8 258.591L178.544 258.453L178.186 258.17Z" fill="black"/>
<path opacity="0.2" d="M224.767 284.97L227.031 283.687L229.08 281.451C227.893 278.553 226.23 276.214 223.836 274.834C222.408 274.013 221.124 273.951 220.075 274.503C219.682 274.717 218.302 275.517 217.757 275.835C218.813 275.283 220.089 275.352 221.518 276.173C223.912 277.553 225.575 279.892 226.762 282.783L224.733 285.046C224.718 285.01 224.707 284.974 224.698 284.936L223.836 284.439L221.49 285.778L227.776 289.407V293.94C227.417 296.314 226.548 297.673 225.451 298.267H225.492C225.885 298.046 227.369 297.163 227.741 296.963C228.852 296.376 229.729 295.017 230.094 292.622V288.075L224.767 284.97Z" fill="black"/>
<path opacity="0.1" d="M120.75 231.792V220.628C120.598 220.117 120.419 219.613 120.232 219.124L117.914 220.448C118.861 222.868 119.359 225.44 119.384 228.038C119.384 231.737 118.307 234.304 116.624 235.27C117.01 235.042 118.514 234.172 118.887 233.965C119.723 233.457 120.376 232.696 120.75 231.792Z" fill="black"/>
<path opacity="0.1" d="M132.376 225.099L134.695 223.76V226.044L134.357 226.244V244.916L132.376 246.061V225.099Z" fill="black"/>
<path opacity="0.1" d="M166.739 244.936L169.057 243.604L172.762 259.888V268.769L172.231 269.072L166.739 244.936Z" fill="black"/>
<path opacity="0.1" d="M181.753 263.518L180.573 264.208C180.192 264.457 179.732 264.556 179.283 264.484L183.968 275.855L184.582 275.503V270.384L181.753 263.518Z" fill="black"/>
<path opacity="0.1" d="M202.177 262.725L199.858 264.063V285.025L201.839 283.887V265.209L202.177 265.015V262.725Z" fill="black"/>
<path opacity="0.1" d="M204.944 266.996L207.262 265.657L210.388 274.986V283.156L204.944 266.996Z" fill="black"/>
<path opacity="0.1" d="M226.741 282.783L229.059 281.444L227.031 283.708L224.712 285.046L226.741 282.783Z" fill="black"/>
<path opacity="0.1" d="M227.783 293.94C227.424 296.314 226.555 297.673 225.458 298.266H225.499C225.892 298.046 227.376 297.162 227.748 296.962C228.859 296.376 229.736 295.017 230.101 292.622V288.075L227.783 289.414V293.94Z" fill="black"/>
<path opacity="0.1" d="M195.387 271.95C195.387 275.69 194.221 278.091 192.462 278.912L192.669 278.822L195.07 277.442C195.81 276.974 196.398 276.3 196.76 275.503V264.677C196.629 264.27 196.491 263.87 196.339 263.483L194.021 264.815C194.904 267.091 195.367 269.508 195.387 271.95Z" fill="black"/>
<path opacity="0.1" d="M160.77 249.284C160.74 246.786 160.273 244.313 159.39 241.977L157.072 243.315C157.955 245.652 158.422 248.125 158.452 250.622C158.452 254.355 157.361 256.936 155.623 257.881C156.112 257.619 157.589 256.743 157.948 256.542C159.68 255.597 160.77 253.017 160.77 249.284Z" fill="black"/>
<path opacity="0.1" d="M143.975 246.917C143.975 248.835 143.472 250.125 142.547 250.629C142.954 250.408 144.52 249.491 144.907 249.249C145.182 249.095 145.418 248.88 145.597 248.621C145.042 246.699 144.756 244.709 144.748 242.708C144.746 241.92 144.804 241.134 144.921 240.355C144.518 239.727 144.028 239.16 143.465 238.671L141.595 239.755H141.526C141.496 239.775 141.463 239.791 141.429 239.803C141.319 239.863 141.2 239.904 141.077 239.927C142.775 241.397 143.975 243.57 143.975 246.917Z" fill="black"/>
<path opacity="0.3" d="M123.827 228.121V241.128L126.146 239.789V234.952L123.862 228.135L123.827 228.121Z" fill="black"/>
<path opacity="0.1" d="M213.493 271.936V292.898L215.811 291.56V289.331C215.2 287.35 214.881 285.291 214.866 283.218C214.811 281.456 215.134 279.704 215.811 278.077V270.598L213.493 271.936Z" fill="black"/>
<path d="M112.504 213.245C116.286 215.432 119.356 221.925 119.356 228.052C119.356 234.179 116.417 237.229 112.504 234.952C108.482 232.627 105.604 226.237 105.604 220.117C105.604 213.997 108.758 211.085 112.504 213.245ZM112.504 230.35C114.982 231.778 116.003 229.246 116.003 226.12C116.003 222.994 114.913 219.22 112.504 217.84C110.096 216.46 108.992 218.937 108.992 222.063C108.992 225.188 109.965 228.88 112.504 230.35Z" fill="#625BE9"/>
<path d="M123.827 241.128L120.722 239.341V218.372L123.827 220.166L129.237 236.298V223.312L132.342 225.099V246.061L129.237 244.274L123.827 228.135V241.128Z" fill="#625BE9"/>
<path d="M138.579 228.687C140.925 230.067 142.775 232.447 142.775 236.442C142.775 238.367 142.23 239.706 141.07 239.954C142.775 241.397 143.975 243.536 143.975 246.917C143.975 250.298 142.347 251.822 139.525 250.187L134.357 247.206V226.244L138.579 228.687ZM137.71 236.387C139.042 237.16 139.78 236.939 139.78 235.187C139.788 234.492 139.598 233.81 139.231 233.221C138.864 232.632 138.337 232.16 137.71 231.861L137.462 231.723V236.242L137.71 236.387ZM138.4 245.875C139.87 246.723 140.677 246.503 140.677 244.853C140.722 244.047 140.531 243.245 140.126 242.547C139.722 241.848 139.122 241.283 138.4 240.92L137.427 240.362V245.316L138.4 245.875Z" fill="#625BE9"/>
<path d="M151.6 235.821C155.381 238.002 158.452 244.502 158.452 250.622C158.452 256.742 155.512 259.806 151.6 257.522C147.577 255.204 144.741 248.807 144.741 242.687C144.741 236.567 147.86 233.655 151.6 235.821ZM151.6 252.92C154.077 254.348 155.098 251.816 155.098 248.69C155.098 245.564 154.015 241.79 151.6 240.41C149.185 239.03 148.088 241.507 148.088 244.633C148.088 247.758 149.04 251.457 151.6 252.92Z" fill="#625BE9"/>
<path d="M172.231 269.1L168.898 267.175L167.891 262.407L162.709 259.413L161.702 263.028L158.369 261.103L163.889 243.308L166.759 244.964L172.231 269.1ZM165.331 250.629H165.296L163.778 255.852L166.849 257.626L165.331 250.629Z" fill="#625BE9"/>
<path d="M177.634 251.229C180.152 252.685 182.07 255.901 182.07 260.02C182.07 263.166 180.946 264.629 179.31 264.477L183.996 275.849L180.049 273.572L175.909 262.89V271.17L172.804 269.383V248.4L177.634 251.229ZM176.254 259.716C177.427 260.406 178.827 261.096 178.827 258.461C178.827 255.825 177.447 254.907 176.254 254.231L175.895 254.024V259.544L176.254 259.716Z" fill="#625BE9"/>
<path d="M188.522 257.515C192.255 259.668 195.387 265.85 195.387 271.95C195.387 278.05 192.268 280.644 188.522 278.477L184.582 276.2V255.238L188.522 257.515ZM188.163 273.999C190.454 275.324 192.02 273.537 192.041 270.039C192.061 266.54 190.44 262.89 188.163 261.579L187.68 261.303V273.723L188.163 273.999Z" fill="#625BE9"/>
<path d="M199.859 285.025L196.76 283.238V262.269L199.859 264.063V285.025Z" fill="#625BE9"/>
<path d="M204.93 287.965L201.825 286.171V265.208L204.93 267.03L210.34 283.169H210.374V270.142L213.479 271.936V292.898L210.374 291.104L204.964 274.972H204.93V287.965Z" fill="#625BE9"/>
<path d="M227.783 293.94C227.038 298.825 224.167 299.46 221.497 297.887C217.833 295.769 214.866 289.2 214.866 283.204C214.866 277.208 217.667 273.951 221.497 276.159C223.891 277.539 225.554 279.878 226.741 282.769L224.712 285.032C223.919 282.617 222.884 281.279 221.676 280.582C219.765 279.478 218.226 281.506 218.226 285.143C218.226 288.779 219.779 292.491 221.676 293.595C223.167 294.451 224.629 293.823 224.629 291.256L221.49 289.462V285.777L227.776 289.407L227.783 293.94Z" fill="#625BE9"/>
<path opacity="0.1" d="M166.739 227.459C184.809 227.459 199.458 219 199.458 208.566C199.458 198.133 184.809 189.674 166.739 189.674C148.668 189.674 134.019 198.133 134.019 208.566C134.019 219 148.668 227.459 166.739 227.459Z" fill="black"/>
<path opacity="0.1" d="M227.776 263.622C248.084 263.622 264.546 254.116 264.546 242.39C264.546 230.665 248.084 221.159 227.776 221.159C207.468 221.159 191.006 230.665 191.006 242.39C191.006 254.116 207.468 263.622 227.776 263.622Z" fill="black"/>
<path d="M105.887 17.1467L130.41 31.2503C130.695 31.4364 130.933 31.687 131.103 31.9819C131.273 32.2768 131.371 32.6077 131.39 32.9477V66.4334C131.371 66.7723 131.272 67.1019 131.1 67.3947C130.929 67.6876 130.69 67.9352 130.403 68.117L126.905 70.0835C126.599 70.235 126.263 70.3137 125.922 70.3137C125.581 70.3137 125.244 70.235 124.938 70.0835L100.423 55.9661C100.136 55.7813 99.8981 55.531 99.7277 55.2358C99.5573 54.9407 99.4597 54.6091 99.4429 54.2687V20.783C99.4613 20.4449 99.5597 20.1159 99.73 19.8232C99.9003 19.5305 100.138 19.2825 100.423 19.0994L103.928 17.1329C104.233 16.9822 104.569 16.9049 104.909 16.9073C105.25 16.9097 105.585 16.9917 105.887 17.1467Z" fill="#625BE9"/>
<path d="M125.884 69.5039V36.0182C125.864 35.6778 125.764 35.3468 125.591 35.0528C125.418 34.7589 125.178 34.5103 124.89 34.3277L100.423 20.2172C99.8776 19.9067 99.4429 20.162 99.4429 20.783V54.2687C99.4597 54.6091 99.5573 54.9406 99.7277 55.2358C99.8981 55.531 100.136 55.7813 100.423 55.9661L124.89 70.0697C125.449 70.3802 125.884 70.1318 125.884 69.5039Z" fill="#625BE9"/>
<path opacity="0.2" d="M124.89 70.0698C125.196 70.2197 125.533 70.2976 125.873 70.2976C126.214 70.2976 126.551 70.2197 126.857 70.0698L130.355 68.1033C130.642 67.9214 130.881 67.6738 131.052 67.381C131.224 67.0881 131.323 66.7586 131.342 66.4197V32.9409C131.324 32.5886 131.218 32.2466 131.031 31.9473L125.58 35.0592C125.758 35.3484 125.858 35.6789 125.87 36.0183V69.504C125.884 70.0767 125.484 70.3803 124.89 70.0698Z" fill="black"/>
<path opacity="0.4" d="M99.4568 20.6036C99.5327 20.1137 99.9329 19.9136 100.423 20.2172L124.89 34.3277C125.18 34.5073 125.418 34.7594 125.58 35.0591L131.038 31.9472C130.869 31.6634 130.632 31.4262 130.348 31.2572L105.888 17.1398C105.584 16.9869 105.248 16.9072 104.908 16.9072C104.568 16.9072 104.232 16.9869 103.928 17.1398L100.423 19.1063C100.164 19.2724 99.9442 19.492 99.7776 19.7503C99.611 20.0086 99.5016 20.2995 99.4568 20.6036Z" fill="white"/>
<path d="M134.033 57.7807C134.647 57.415 139.249 54.8206 139.401 54.7378C139.513 54.6672 139.609 54.5729 139.681 54.4614C139.753 54.35 139.8 54.2242 139.819 54.0927C139.837 53.9613 139.826 53.8274 139.788 53.7004C139.749 53.5735 139.683 53.4565 139.594 53.3578L131.273 42.9595L125.884 46.0162L134.205 56.4076C134.29 56.5063 134.354 56.6219 134.392 56.7468C134.43 56.8716 134.441 57.0031 134.424 57.1325C134.408 57.262 134.365 57.3865 134.297 57.4982C134.23 57.6099 134.14 57.7061 134.033 57.7807Z" fill="#625BE9"/>
<path opacity="0.4" d="M134.033 57.7807C134.647 57.415 139.249 54.8206 139.401 54.7378C139.513 54.6672 139.609 54.5729 139.681 54.4614C139.753 54.35 139.8 54.2242 139.819 54.0927C139.837 53.9613 139.826 53.8274 139.788 53.7004C139.749 53.5735 139.683 53.4565 139.594 53.3578L131.273 42.9595L125.884 46.0162L134.205 56.4076C134.29 56.5063 134.354 56.6219 134.392 56.7468C134.43 56.8716 134.441 57.0031 134.424 57.1325C134.408 57.262 134.365 57.3865 134.297 57.4982C134.23 57.6099 134.14 57.7061 134.033 57.7807Z" fill="white"/>
<path d="M125.884 46.0234L134.205 56.3734C134.325 56.4922 134.408 56.6431 134.445 56.8079C134.481 56.9728 134.469 57.1446 134.41 57.3028C134.351 57.4609 134.247 57.5987 134.112 57.6994C133.976 57.8002 133.815 57.8597 133.646 57.8707L125.884 58.7125V46.0234Z" fill="#625BE9"/>
<path d="M110.214 39.7371C110.214 37.8051 111.235 36.8253 112.491 37.5498C113.747 38.2743 114.761 40.4271 114.761 42.3798C114.761 44.3325 113.747 45.2916 112.491 44.5671C111.235 43.8426 110.214 41.6691 110.214 39.7371Z" fill="#FAFAFA"/>
<path d="M115.23 56.8977L109.71 53.7099C109.284 53.3667 108.949 52.9243 108.734 52.4215C108.518 51.9187 108.429 51.3707 108.475 50.8257L108.737 47.8449C108.923 45.6921 110.179 44.7192 111.663 45.5748L113.277 46.5063C114.761 47.3688 116.037 49.7838 116.203 52.1574L116.465 55.4418C116.61 56.6424 116.003 57.3324 115.23 56.8977Z" fill="#FAFAFA"/>
<path d="M116.127 39.4476C116.127 37.3224 117.245 36.246 118.625 37.0464C120.005 37.8468 121.123 40.2135 121.123 42.3318C121.123 44.4501 120.005 45.5334 118.625 44.7399C117.245 43.9464 116.127 41.5728 116.127 39.4476Z" fill="#FAFAFA"/>
<path d="M121.502 58.2084L117.852 56.097L117.59 52.8264C117.397 50.4241 116.505 48.1309 115.023 46.23C115.156 46.0256 115.329 45.8506 115.533 45.7159C115.736 45.5812 115.964 45.4896 116.204 45.447C116.444 45.4043 116.691 45.4113 116.928 45.4677C117.165 45.524 117.388 45.6285 117.583 45.7746L119.37 46.8027C120.999 47.748 122.372 50.3976 122.579 53.0127L122.869 56.6145C122.972 57.96 122.33 58.6845 121.502 58.2084Z" fill="#FAFAFA"/>
<path d="M109.206 36.2254C109.206 34.2037 108.144 31.9543 106.833 31.2022C105.522 30.4501 104.459 31.4644 104.459 33.4861C104.459 35.5078 105.522 37.7503 106.833 38.5093C108.144 39.2683 109.206 38.2471 109.206 36.2254Z" fill="#FAFAFA"/>
<path d="M110.255 43.8911C108.965 43.9463 107.999 45.209 107.813 47.3411L107.564 50.1563L104.114 48.1553C103.662 47.8001 103.306 47.3376 103.078 46.8098C102.851 46.282 102.758 45.7056 102.81 45.1331L103.086 42.035C103.279 39.7787 104.59 38.7713 106.136 39.6614L107.826 40.6412C108.967 41.4326 109.819 42.5732 110.255 43.8911Z" fill="#FAFAFA"/>
<path d="M278.367 78.536V68.7863L270.135 68.0963C270.016 68.082 269.895 68.1062 269.79 68.1653C269.473 68.3378 262.842 72.1535 262.738 72.2156C262.661 72.2615 262.596 72.3241 262.546 72.3986C262.497 72.4732 262.465 72.5579 262.452 72.6466C262.439 72.7352 262.447 72.8255 262.474 72.911C262.501 72.9964 262.546 73.0747 262.607 73.1402L271.329 82.607L278.367 78.536Z" fill="#625BE9"/>
<path d="M271.329 82.5796L262.607 73.1404C262.525 73.0517 262.471 72.94 262.453 72.8201C262.435 72.7002 262.453 72.5777 262.506 72.4686C262.56 72.3596 262.644 72.2692 262.75 72.2092C262.855 72.1493 262.976 72.1228 263.097 72.133L271.329 72.823V82.5796Z" fill="#625BE9"/>
<path d="M278.36 68.7862L271.329 72.8296L263.097 72.1396C263.001 72.1315 262.904 72.1456 262.814 72.181C263.47 71.7946 269.493 68.3308 269.79 68.1721C269.895 68.113 270.016 68.0889 270.135 68.1031L278.36 68.7862Z" fill="#625BE9"/>
<path opacity="0.5" d="M278.36 68.7862L271.329 72.8296L263.097 72.1396C263.001 72.1315 262.904 72.1456 262.814 72.181C263.47 71.7946 269.493 68.3308 269.79 68.1721C269.895 68.113 270.016 68.0889 270.135 68.1031L278.36 68.7862Z" fill="white"/>
<path d="M277.677 55.6832L302.165 69.7868C302.449 69.9741 302.686 70.225 302.856 70.5196C303.026 70.8143 303.125 71.1446 303.145 71.4842V104.97C303.127 105.309 303.029 105.639 302.857 105.932C302.685 106.225 302.445 106.473 302.158 106.654L298.653 108.62C298.348 108.771 298.013 108.85 297.673 108.85C297.333 108.85 296.998 108.771 296.693 108.62L272.205 94.5302C271.921 94.3449 271.684 94.0953 271.514 93.8017C271.344 93.5081 271.245 93.1786 271.225 92.8397V59.3402C271.244 59.0014 271.344 58.6721 271.516 58.3793C271.687 58.0866 271.926 57.8389 272.212 57.6566L275.717 55.697C276.02 55.542 276.355 55.46 276.695 55.4576C277.036 55.4552 277.372 55.5325 277.677 55.6832Z" fill="#625BE9"/>
<path d="M297.673 108.047V74.5548C297.654 74.2166 297.557 73.8875 297.388 73.5939C297.219 73.3003 296.983 73.0505 296.7 72.8643L272.205 58.7538C271.667 58.4433 271.225 58.6986 271.225 59.3196V92.8122C271.241 93.1558 271.337 93.4909 271.508 93.7896C271.678 94.0884 271.917 94.3423 272.205 94.5303L296.7 108.613C297.231 108.924 297.673 108.668 297.673 108.047Z" fill="#625BE9"/>
<path opacity="0.2" d="M296.7 108.613C297.006 108.762 297.341 108.839 297.68 108.839C298.019 108.839 298.354 108.762 298.66 108.613L302.165 106.647C302.45 106.465 302.688 106.219 302.86 105.927C303.032 105.636 303.131 105.308 303.152 104.97V71.4844C303.137 71.1286 303.027 70.7832 302.834 70.4839L297.39 73.5958C297.568 73.885 297.668 74.2155 297.68 74.5549V108.041C297.673 108.613 297.266 108.944 296.7 108.613Z" fill="black"/>
<path opacity="0.4" d="M271.239 59.147C271.315 58.6502 271.722 58.457 272.205 58.7537L296.7 72.8642C296.987 73.0476 297.224 73.2988 297.39 73.5956L302.841 70.4837C302.673 70.1996 302.435 69.9623 302.151 69.7937L277.677 55.6832C277.373 55.5319 277.037 55.4531 276.697 55.4531C276.357 55.4531 276.022 55.5319 275.717 55.6832L272.212 57.6497C271.953 57.8162 271.733 58.0357 271.565 58.2939C271.397 58.552 271.286 58.8428 271.239 59.147Z" fill="white"/>
<path d="M274.42 80.8752L275.448 84.3252C275.487 84.4217 275.549 84.5073 275.628 84.5746C275.707 84.6419 275.802 84.689 275.903 84.7116L277.932 85.2015C278.146 85.258 278.331 85.3936 278.45 85.581C278.771 86.2365 279.136 86.8703 279.54 87.4785C279.646 87.6364 279.688 87.8289 279.657 88.0167L279.002 90.2454C278.988 90.3397 278.998 90.4358 279.029 90.5258C279.06 90.6158 279.112 90.6971 279.181 90.7629L281.555 93.2745C281.593 93.3272 281.647 93.3659 281.71 93.3846C281.772 93.4033 281.839 93.401 281.9 93.378C281.919 93.3656 281.936 93.3491 281.948 93.3297L283.059 91.6392C283.135 91.515 283.335 91.5288 283.514 91.6392C283.694 91.7496 283.956 91.9221 284.17 92.0463C284.384 92.1705 284.625 92.3016 284.86 92.412C285.064 92.507 285.232 92.6672 285.336 92.8674L286.502 96.0069C286.549 96.0958 286.617 96.1718 286.7 96.2284C286.783 96.2849 286.878 96.3202 286.978 96.3312L289.138 96.5451C289.202 96.5708 289.274 96.5708 289.338 96.5451C289.374 96.524 289.402 96.4917 289.418 96.4531C289.434 96.4146 289.438 96.3718 289.428 96.3312L288.738 93.24C288.723 93.159 288.738 93.0756 288.78 93.0048C288.822 92.9339 288.887 92.8803 288.965 92.8536C289.306 92.7213 289.623 92.5349 289.904 92.3016C289.982 92.2599 290.072 92.2455 290.159 92.2604C290.247 92.2754 290.327 92.319 290.387 92.3844L292.595 94.3992C292.658 94.4664 292.744 94.5081 292.836 94.5165H292.919C292.942 94.5008 292.961 94.4795 292.974 94.4544L293.961 92.2809C293.983 92.1916 293.982 92.0983 293.959 92.0092C293.936 91.9201 293.892 91.8381 293.83 91.7703L291.76 89.2587C291.631 89.1062 291.56 88.9132 291.56 88.7136C291.611 88.1214 291.611 87.5257 291.56 86.9334C291.559 86.8927 291.566 86.8522 291.581 86.8145C291.597 86.7767 291.62 86.7425 291.649 86.7141C291.678 86.6856 291.713 86.6634 291.751 86.6489C291.789 86.6344 291.829 86.6279 291.87 86.6298L293.726 86.5263C293.913 86.5263 294.03 86.3745 293.975 86.2158L292.953 82.7658C292.914 82.6706 292.851 82.5864 292.772 82.5203C292.693 82.4543 292.599 82.4083 292.498 82.3863L290.469 81.8964C290.254 81.8376 290.069 81.6995 289.952 81.51C289.63 80.8568 289.266 80.2252 288.862 79.6194C288.757 79.461 288.715 79.269 288.744 79.0812L289.434 76.8456C289.441 76.7501 289.429 76.6541 289.396 76.5638C289.364 76.4735 289.314 76.3909 289.248 76.3212L286.875 73.8165C286.737 73.6716 286.557 73.644 286.474 73.7682L285.37 75.4518C285.294 75.576 285.094 75.5622 284.908 75.4518C284.485 75.1578 284.04 74.8971 283.576 74.6721C283.37 74.5794 283.202 74.4186 283.1 74.2167L281.934 71.0772C281.887 70.9884 281.819 70.9123 281.736 70.8558C281.653 70.7992 281.558 70.7639 281.458 70.7529L279.298 70.539C279.233 70.5169 279.163 70.5169 279.098 70.539C279.059 70.5571 279.028 70.5887 279.01 70.628C278.992 70.6673 278.989 70.7116 279.002 70.7529L279.692 73.8441C279.705 73.9241 279.69 74.0062 279.65 74.0767C279.61 74.1471 279.546 74.2014 279.471 74.2305C279.127 74.3612 278.808 74.5477 278.526 74.7825C278.448 74.8254 278.357 74.8406 278.27 74.8255C278.182 74.8105 278.102 74.7661 278.043 74.6997L275.835 72.6849C275.717 72.5814 275.6 72.5469 275.517 72.5883C275.49 72.6017 275.468 72.6235 275.455 72.6504L274.475 74.8239C274.454 74.9139 274.454 75.0076 274.475 75.0976C274.497 75.1875 274.539 75.2711 274.599 75.3414L276.669 77.8392C276.798 77.9947 276.868 78.1897 276.87 78.3912C276.87 78.6879 276.828 78.9984 276.828 79.3089C276.828 79.6194 276.828 79.8816 276.876 80.1714C276.876 80.2125 276.868 80.2531 276.852 80.2909C276.836 80.3286 276.812 80.3627 276.783 80.3911C276.753 80.4195 276.718 80.4416 276.679 80.456C276.641 80.4704 276.6 80.4769 276.559 80.475L274.71 80.5785C274.666 80.5706 274.622 80.5706 274.579 80.5785C274.549 80.5872 274.52 80.6018 274.496 80.6215C274.472 80.6413 274.451 80.6657 274.437 80.6933C274.422 80.721 274.413 80.7513 274.41 80.7826C274.407 80.8138 274.41 80.8453 274.42 80.8752ZM282.548 87.1818C280.333 84.8496 279.285 81.3099 280.202 79.2882C280.337 78.9283 280.566 78.6108 280.864 78.3683C281.162 78.1257 281.52 77.967 281.9 77.9082H281.982H282.058H282.155C282.684 77.8979 283.209 78.0113 283.687 78.2394C283.874 78.319 284.057 78.4112 284.232 78.5154C284.837 78.8779 285.387 79.3239 285.867 79.8402C287.462 81.5006 288.411 83.6759 288.544 85.9743C288.547 86.1842 288.536 86.394 288.51 86.6022C288.469 86.9924 288.369 87.374 288.213 87.7338C288.053 88.1425 287.773 88.4931 287.409 88.7394C287.046 88.9857 286.617 89.1162 286.178 89.1138H285.978H285.75L285.563 89.0793H285.474H285.357C284.261 88.7235 283.287 88.0658 282.548 87.1818Z" fill="white"/>
<path d="M219.351 84.3525C214.797 85.2495 211.851 87.6507 210.871 94.7853C209.705 103.355 207.842 116.527 207.842 116.527C207.842 116.527 201.791 133.674 198.706 137.524C197.819 138.552 196.835 139.493 195.767 140.332C192.931 143.886 186.335 146.252 189.329 148.253C191.627 149.785 195.098 150.089 198.382 148.253C202.819 145.783 204.633 142.934 206.834 139.283C209.594 134.736 219.068 117.721 219.068 117.721L219.351 84.3525Z" fill="#B16668"/>
<path d="M199.803 135.833C199.217 136.813 197.195 137.055 195.27 137.441C193.345 137.828 191.868 138.959 190.53 139.235C189.378 139.47 189.709 140.843 191.765 140.953C193.821 141.064 196.243 139.497 196.643 140.953C197.043 142.409 200.845 138.442 199.803 135.833Z" fill="#B16668"/>
<path d="M203.826 126.532L202.598 129.389C204.564 129.52 209.346 131.907 210.188 133.529L211.878 130.589L203.826 126.532Z" fill="#EBEBEB"/>
<path d="M219.351 84.3522C219.351 84.3522 214.721 84.2073 212.486 88.1817C210.25 92.1561 207.483 116.472 207.483 116.472L203.019 127.795C204.902 127.664 210.671 130.603 211.416 132.39L219.199 119.639L219.351 84.3522Z" fill="#37474F"/>
<path d="M247.379 232.219H240.624V243.784H247.379V232.219Z" fill="#B16668"/>
<path d="M220.448 227.244L213.7 227.472L213.362 215.239L220.448 215.004V227.244Z" fill="#B16668"/>
<path d="M247.131 134.467C247.131 140.919 246.868 193.628 246.868 193.628C247.027 195.484 248.814 198.789 248.938 205.475C249.145 215.135 247.655 238.002 247.655 238.002C246.489 238.575 245.211 238.886 243.911 238.912C242.612 238.939 241.322 238.68 240.134 238.153C240.134 238.153 234.828 205.848 233.613 196.257C232.558 187.88 229.618 150.316 229.618 150.316L224.45 186.045C225.234 189.566 225.518 193.18 225.292 196.781C224.975 201.218 220.862 223.449 220.862 223.449C219.686 224.115 218.378 224.514 217.031 224.617C215.683 224.721 214.329 224.527 213.065 224.05C213.065 224.05 212.665 189.15 212.582 185.079C212.493 180.435 213.555 133.073 213.555 133.073L247.131 134.467Z" fill="#37474F"/>
<path d="M240.624 240.451V239.485C240.258 239.485 240.037 239.837 239.899 240.706C239.796 241.327 239.706 241.803 239.499 242.618C239.202 243.798 238.807 244.952 238.319 246.068C237.367 248.421 236.567 249.297 234.379 252.05C233.642 252.813 232.95 253.619 232.309 254.465C231.902 255.19 231.757 257.225 232.447 257.68C235 259.378 238.871 259.426 241.61 258.619C242.633 258.336 243.552 257.764 244.258 256.973C244.964 256.181 245.427 255.203 245.592 254.154C245.688 253.533 245.654 252.892 245.723 252.264C245.963 250.841 246.543 249.496 247.413 248.345C247.923 247.68 248.36 246.963 248.717 246.206C249.283 244.826 248.828 243.259 248.462 241.873C248.152 240.679 247.814 239.368 247.406 239.478C247.406 239.623 247.406 240.217 247.406 240.217C246.917 240.762 245.557 241.3 244.025 241.355C243.011 241.403 240.617 241.203 240.624 240.451Z" fill="#263238"/>
<path d="M213.631 225.388C213.631 225.568 213.003 226.12 212.251 226.768C211.511 227.407 210.737 228.006 209.933 228.562C208.288 229.763 206.561 230.847 204.764 231.805C202.632 232.978 200.707 233.689 198.154 234.841C197.893 234.95 197.658 235.112 197.464 235.317C197.307 235.498 197.2 235.717 197.154 235.952C197.078 236.434 197.138 236.927 197.327 237.377C197.516 237.827 197.826 238.215 198.223 238.498C199.022 239.059 199.929 239.447 200.887 239.637C203.052 240.247 205.333 240.316 207.531 239.837C209.341 239.295 211.049 238.461 212.589 237.367C213.958 236.4 215.514 235.73 217.157 235.4C218.592 235.193 220.352 235.262 221.594 234.407C222.974 233.454 222.422 231.426 222.035 229.68C221.607 227.776 221.076 224.802 220.441 224.933V225.623C219.634 226.851 215.439 227.355 213.659 226.451L213.631 225.388Z" fill="#263238"/>
<path d="M229.632 150.316C226.137 149.22 222.924 147.371 220.22 144.9C220.22 144.9 222.035 148.302 227.438 151.462L224.823 184.064L229.632 150.316Z" fill="#263238"/>
<path d="M235.414 84.9802C237.712 85.5322 242.349 86.2912 243.384 90.8728C244.633 96.3928 245.04 108.344 245.04 108.344L245.468 134.991C240.817 138.379 222.767 140.222 212.976 133.073C212.976 133.073 215.135 101.078 215.135 96.0961C215.135 91.1143 217.895 85.1389 225.547 84.6904L235.414 84.9802Z" fill="#F5F5F5"/>
<path d="M225.63 84.1797C223.861 86.3472 222.568 88.8627 221.835 91.5627C220.91 95.5923 220.034 141.326 220.034 141.326C220.034 141.326 214.811 140.691 212.575 138.938C212.575 138.938 212.12 101.561 213.051 95.751C214.714 85.4769 214.59 84.4557 225.63 83.4897V84.1797Z" fill="#455A64"/>
<path d="M237.429 83.4897C237.429 83.4897 231.06 87.402 230.991 102.989C230.929 116.458 231.136 143.258 231.136 143.258C231.136 143.258 241.707 143.948 248.386 139.925C248.386 139.925 247.006 122.909 246.903 113.394C249.663 99.8841 252.078 86.712 248.193 85.6425C244.308 84.573 237.429 83.4897 237.429 83.4897Z" fill="#455A64"/>
<path d="M238.14 92.0322L235.228 95.6409L236.684 99.7533L232.854 109.572L237.478 99.7533L235.856 95.8755L238.14 92.0322Z" fill="#37474F"/>
<path d="M217.578 90.873L218.213 94.6059L215.687 97.8903L219.199 108.951L216.481 98.0146L218.813 94.9441L217.578 90.873Z" fill="#37474F"/>
<path d="M233.772 61.6374C233.773 63.4746 233.23 65.2709 232.21 66.7991C231.191 68.3273 229.741 69.5188 228.044 70.2228C226.347 70.9268 224.479 71.1117 222.677 70.7541C220.875 70.3965 219.219 69.5125 217.92 68.214C216.62 66.9154 215.735 65.2605 215.376 63.4588C215.017 61.657 215.201 59.7892 215.904 58.0918C216.606 56.3943 217.797 54.9434 219.324 53.9226C220.852 52.9018 222.647 52.3569 224.485 52.3569C226.947 52.3569 229.308 53.3345 231.049 55.0747C232.791 56.8149 233.77 59.1755 233.772 61.6374Z" fill="#263238"/>
<path d="M240.534 68.2407C240.534 68.2407 239.03 75.3063 238.423 76.4655C238.023 77.1846 237.36 77.7211 236.573 77.9628L236.684 72.9879L240.534 68.2407Z" fill="#263238"/>
<path d="M238.644 58.1116C239.165 58.0551 239.693 58.117 240.188 58.2926C240.682 58.4682 241.131 58.753 241.5 59.1259C242.742 60.3955 242.045 64.3561 240.507 68.2408L237.671 68.5651L238.644 58.1116Z" fill="#263238"/>
<path d="M236.85 68.5655C237.415 68.9036 238.23 67.8134 238.92 67.082C239.61 66.3506 241.907 65.3501 243.06 67.772C244.212 70.1939 242.052 73.4576 240.251 74.0234C237.146 74.9963 236.684 73.0091 236.684 73.0091L236.449 85.6844C234.303 88.4444 229.487 91.6736 226.893 91.2044C224.823 90.8318 224.367 87.3335 226.348 85.0427V80.4956C224.971 80.7232 223.574 80.8019 222.18 80.7302C219.896 80.3783 218.454 78.5774 217.771 76.1072C216.722 72.3329 216.391 68.0963 217.178 61.1273C218.151 52.5644 228.162 52.4885 233.531 55.8695C238.899 59.2505 236.85 68.5655 236.85 68.5655Z" fill="#B16668"/>
<path d="M236.849 69.5244C237.132 69.5244 238.229 67.7235 238.919 67.0818C239.899 66.1917 238.636 58.1118 238.636 58.1118C238.973 57.401 239.088 56.605 238.965 55.8281C238.841 55.0513 238.487 54.3297 237.946 53.7579C236.608 52.2744 234.731 50.4735 228.645 51.1911C224.298 51.7086 219.572 53.061 215.756 51.1911C215.404 52.4358 215.431 53.7574 215.834 54.9866C216.237 56.2158 216.998 57.2967 218.019 58.0911C218.019 58.0911 219.399 58.9812 223.036 59.4228C226.392 59.6761 229.765 59.6114 233.11 59.2295C234.165 59.0915 234.386 60.1128 234.959 62.9004C235.476 65.3499 235.89 69.5037 236.849 69.5244Z" fill="#263238"/>
<path d="M238.637 58.7396L242.087 56.8973C241.977 56.666 241.821 56.4594 241.629 56.29C241.437 56.1206 241.212 55.992 240.969 55.912C240.726 55.832 240.469 55.8023 240.214 55.8246C239.959 55.8469 239.711 55.9207 239.485 56.0417C239.028 56.2999 238.686 56.7222 238.528 57.2231C238.371 57.7241 238.409 58.2662 238.637 58.7396Z" fill="#263238"/>
<path d="M226.354 80.4814C226.354 80.4814 231.454 79.4533 233.254 78.508C234.3 77.9618 235.156 77.1129 235.711 76.0723C235.448 77.112 234.979 78.0882 234.331 78.9427C233.027 80.6056 226.389 81.9373 226.389 81.9373L226.354 80.4814Z" fill="#9A4A4D"/>
<path d="M225.872 67.006C225.881 67.2057 225.949 67.3981 226.067 67.5596C226.184 67.7211 226.347 67.8444 226.534 67.9144C226.721 67.9843 226.925 67.9978 227.12 67.9531C227.315 67.9084 227.492 67.8075 227.63 67.663C227.768 67.5184 227.861 67.3365 227.896 67.1399C227.932 66.9432 227.909 66.7404 227.831 66.5566C227.752 66.3728 227.621 66.2161 227.455 66.1058C227.288 65.9956 227.093 65.9367 226.893 65.9365C226.616 65.9438 226.353 66.0603 226.162 66.2607C225.97 66.4611 225.866 66.729 225.872 67.006Z" fill="#263238"/>
<path d="M226.748 64.0114L228.928 65.2189C229.083 64.9161 229.113 64.5649 229.013 64.2401C228.912 63.9153 228.689 63.6426 228.39 63.4801C228.248 63.4054 228.092 63.3599 227.932 63.3462C227.771 63.3325 227.61 63.3509 227.457 63.4004C227.304 63.4499 227.163 63.5295 227.041 63.6344C226.919 63.7393 226.819 63.8675 226.748 64.0114Z" fill="#263238"/>
<path d="M226.817 74.3477L224.485 75.2102C224.536 75.3667 224.618 75.5113 224.726 75.6355C224.834 75.7596 224.966 75.8608 225.114 75.9329C225.262 76.005 225.423 76.0466 225.588 76.0552C225.752 76.0638 225.917 76.0392 226.072 75.983C226.381 75.8566 226.63 75.617 226.768 75.3131C226.907 75.0092 226.924 74.6639 226.817 74.3477Z" fill="#9A4A4D"/>
<path d="M217.564 64.7701L219.855 63.7351C219.798 63.58 219.71 63.4382 219.596 63.3184C219.483 63.1986 219.346 63.1035 219.194 63.0388C219.042 62.9741 218.878 62.9413 218.713 62.9424C218.548 62.9435 218.384 62.9785 218.233 63.0451C217.918 63.1871 217.67 63.4476 217.545 63.7704C217.42 64.0932 217.427 64.4523 217.564 64.7701Z" fill="#263238"/>
<path d="M218.04 67.006C218.049 67.2057 218.117 67.3981 218.235 67.5596C218.353 67.7211 218.515 67.8444 218.703 67.9144C218.89 67.9843 219.094 67.9978 219.288 67.9531C219.483 67.9084 219.661 67.8075 219.799 67.663C219.937 67.5184 220.029 67.3365 220.065 67.1399C220.101 66.9432 220.078 66.7404 219.999 66.5566C219.921 66.3728 219.79 66.2161 219.623 66.1058C219.456 65.9956 219.261 65.9367 219.061 65.9365C218.784 65.9438 218.521 66.0603 218.33 66.2607C218.139 66.4611 218.034 66.729 218.04 67.006Z" fill="#263238"/>
<path d="M222.891 66.4536L222.56 72.5946L219.351 71.4975L222.891 66.4536Z" fill="#9A4A4D"/>
<path d="M223.181 90.4867C223.809 91.9702 224.961 92.5567 227.058 92.812C228.111 92.8865 229.167 92.7463 230.163 92.3999C231.16 92.0536 232.075 91.5083 232.854 90.7972L230.874 88.8238L226.941 90.6937L225.872 88.1821L223.181 90.4867Z" fill="#37474F"/>
<path d="M224.823 89.7002C224.522 90.5872 224.404 91.5263 224.478 92.4602C224.577 93.3042 224.898 94.1068 225.409 94.7855C225.74 94.9974 226.115 95.1295 226.506 95.1714C226.896 95.2133 227.291 95.1639 227.659 95.027C228.331 94.4512 228.871 93.7369 229.241 92.933C229.612 92.1291 229.804 91.2546 229.805 90.3695L226.941 90.6938L224.823 89.7002Z" fill="#455A64"/>
<path d="M225.409 94.7852C223.181 103.521 221.835 118.383 222.104 119.88C222.373 121.378 224.05 126.78 225.34 126.78C226.631 126.78 228.901 121.433 228.728 120.067C228.404 117.465 227.12 94.7714 227.659 95.006L225.409 94.7852Z" fill="#455A64"/>
<path d="M227.659 95.0267C227.296 95.1873 226.897 95.2495 226.502 95.2071C226.107 95.1648 225.73 95.0192 225.409 94.7852L225.333 95.075C225.613 95.3669 225.968 95.5751 226.36 95.6763C226.751 95.7775 227.162 95.7675 227.548 95.6477L227.659 95.0267Z" fill="#37474F"/>
<path d="M226.941 90.6934C230.985 88.6579 235.87 85.684 236.518 82.4134L236.553 80.5918C236.553 80.5918 238.14 81.0955 238.554 83.7658C238.209 87.7678 235.428 91.8802 231.813 93.9433L229.805 90.3898L226.941 90.6934Z" fill="#E0E0E0"/>
<path d="M226.362 81.7373C225.71 82.005 225.146 82.4495 224.733 83.0207C222.311 86.2499 222.539 91.7699 222.539 91.7699L224.823 89.6999L226.941 90.7211C226.151 88.9427 225.943 86.9598 226.348 85.0562L226.362 81.7373Z" fill="#E0E0E0"/>
<path d="M248.186 85.6704C251.346 86.4846 253.437 86.7399 255.604 90.873C257.487 94.4679 266.181 109.503 268.024 113.112C268.948 114.899 269.866 116.941 267.423 119.418C265.464 121.392 252.568 133.501 250.463 135.571C248.95 137.176 246.894 138.159 244.695 138.331C241.417 138.621 239.817 137.462 239.237 136.751C235.787 132.48 242.411 131.831 244.695 130.417C245.752 129.77 246.698 128.957 247.496 128.009L247.358 125.746C247.358 125.746 249.773 125.746 250.546 125.132C251.319 124.517 258.198 115.575 258.198 115.575C258.198 115.575 248.359 102.624 247.096 99.912C245.833 97.2003 244.398 87.7542 248.186 85.6704Z" fill="#B16668"/>
<path d="M252.312 122.523L250.732 124.69C250.67 126.071 251.128 127.425 252.016 128.485C252.933 129.663 254.115 130.609 255.466 131.245L257.536 129.251L252.312 122.523Z" fill="#EBEBEB"/>
<path d="M251.402 123.351C251.402 123.351 251.912 129.023 256.804 130.589C256.804 130.589 268.438 119.487 269.528 117.983C270.618 116.479 269.859 114.899 267.52 110.793C265.181 106.688 255.99 89.9277 254.465 88.182C252.94 86.4363 250.477 86.112 246.937 85.353C245.207 88.5251 244.685 92.2169 245.468 95.7444C246.848 101.416 248.11 102.92 248.11 102.92L257.142 115.72L251.402 123.351Z" fill="#37474F"/>
<path d="M159.052 195.76C159.094 196.473 158.913 197.182 158.535 197.789C157.585 199.367 156.465 200.836 155.195 202.17C153.408 204.095 150.731 206.365 148.812 208.035C147.75 208.967 147.708 210.374 149.233 210.864C152.074 211.562 155.074 211.145 157.617 209.698C159.521 208.677 162.233 203.95 163.827 203.233C165.642 202.412 166.663 201.998 167.277 201.163C168.195 199.907 168.429 198.968 167.643 197.506C166.787 195.912 165.497 193.448 164.965 193.718L165.131 194.228C164.717 195.532 161.163 197.05 159.342 196.685L159.052 195.76Z" fill="#37474F"/>
<path d="M172.962 204.592V203.715C172.79 205.047 171.023 209.139 168.608 211.347C166.683 213.099 164.061 215.121 163.392 217.074C162.723 219.027 166.49 219.917 168.974 219.668C171.389 219.372 173.614 218.207 175.233 216.391C176.813 214.583 176.785 213.341 177.523 212.347C178.262 211.354 179.959 210.229 180.359 209.077C180.58 208.442 180.318 207.055 180.007 205.882C179.697 204.709 179.421 203.619 179.055 203.715V204.405C178.186 205.087 177.11 205.45 176.005 205.434C175.115 205.447 172.955 205.268 172.962 204.592Z" fill="#37474F"/>
<path d="M182.954 140.76C183.844 132.031 185.631 118.183 183.644 108.406C173.556 106.881 163.565 105.515 153.366 104.266C150.91 116.934 149.737 150.675 151.027 155.402C154.601 169.892 156.43 180.711 158.562 195.159C158.759 196.126 158.592 197.131 158.093 197.981C157.284 199.39 156.317 200.7 155.209 201.887C154.353 202.798 153.546 203.812 152.621 204.702C152.529 204.791 152.457 204.898 152.411 205.017C152.364 205.137 152.344 205.264 152.352 205.392C152.525 206.772 154.519 206.551 155.912 206.082C157.677 205.421 159.205 204.248 160.301 202.715C161.232 201.528 163.061 199.382 164.027 198.113C164.412 197.626 164.749 197.104 165.034 196.553C165.36 195.829 165.425 195.015 165.221 194.249C165.182 194.048 165.155 193.845 165.138 193.641C165.083 191.661 167.056 170.105 166.469 165.186C165.828 159.845 165.089 158.327 163.302 153.863C164.558 144.665 165.745 134.909 166.973 125.573C167.187 135.661 167.228 147.17 168.526 156.851C169.561 164.599 170.064 169.961 170.885 177.551C171.672 184.83 172.624 198.251 172.714 200.245C172.79 201.503 172.754 202.767 172.604 204.019C171.999 206.81 170.616 209.372 168.615 211.409C168.153 211.83 167.649 212.264 167.146 212.706C166.124 213.845 166.414 214.838 168.815 215.045C171.217 215.252 173.335 213.803 175.157 211.595C175.971 210.602 179.055 205.509 179.055 204.474C179.055 204.171 179.055 203.888 179.055 203.639C179.074 201.743 179.242 199.851 179.559 197.981C180.566 192.02 182.733 181.27 183.092 176.502C183.664 168.912 183.092 165.248 181.166 159.252C181.898 151.8 182.084 149.24 182.954 140.76Z" fill="#FFA8A7"/>
<path d="M154.733 98.9185C153.01 105.411 151.845 112.038 151.248 118.728C150.372 129.327 149.454 150.882 149.868 153.008C150.282 155.133 156.499 181.794 156.499 181.794C158.144 182.598 160.001 182.861 161.805 182.546C163.317 182.22 164.745 181.586 166 180.683C166 180.683 167.339 168.56 166.842 163.834C166.345 159.107 163.979 153.484 163.979 153.484L166.98 125.532C166.98 125.532 166.607 142.161 167.532 151.883C168.457 161.605 171.534 184.258 171.534 184.258C172.131 184.916 172.863 185.437 173.68 185.786C174.497 186.135 175.379 186.303 176.267 186.279C178.233 186.253 180.164 185.764 181.905 184.851C181.905 184.851 182.995 179.8 183.45 175.812C184.093 170.362 183.527 164.838 181.794 159.632C181.794 159.632 184.092 133.122 184.899 127.333C185.707 121.544 187.79 111.159 181.173 101.547C180.532 101.278 154.733 98.9185 154.733 98.9185Z" fill="#37474F"/>
<path d="M166.98 125.532V124.283C166.98 124.283 160.77 122.337 157.782 118.494C157.782 118.494 159.211 122.144 165.372 125.532C165.372 125.532 165.241 141.898 165.255 141.726C165.269 141.553 166.98 125.532 166.98 125.532Z" fill="#263238"/>
<path d="M151.296 72.0288C149.081 78.5493 145.383 97.2828 145.383 97.2828C145.383 97.2828 138.483 107.35 136.123 110.241C134.943 111.697 132.39 114.588 132.39 114.588L138.166 119.128C142.347 114.298 148.654 107.888 151.276 104.562C152.518 102.968 153.553 101.602 153.884 100.201L156.513 83.538C156.513 83.538 156.513 70.221 158.583 68.4684C160.653 66.7158 161.205 66.357 161.205 66.357C158.534 66.1707 153.035 66.9297 151.296 72.0288Z" fill="#FFA8A7"/>
<path d="M162.357 66.1711C158.755 65.7571 154.146 65.8261 151.897 69.8557C149.647 73.8853 145.901 94.6405 145.901 94.6405C145.901 94.6405 149.44 97.4005 153.27 97.3522L162.357 66.1711Z" fill="#455A64"/>
<path d="M152.345 85.5601C152.996 88.6617 153.249 91.8337 153.097 94.9993C152.808 99.1393 149.847 106.798 149.847 106.798C149.847 106.798 152.18 108.917 158.528 107.923C163.689 107.116 161.867 91.5355 158.9 88.5202C157.17 86.7376 154.827 85.6794 152.345 85.5601Z" fill="#37474F"/>
<path d="M171.582 66.4678C171.582 66.4678 180.207 67.4614 181.242 67.9237C173.155 73.6093 179.704 86.2708 179.704 86.2708L176.605 95.9791C178.593 98.5321 180.428 100.478 181.974 102.61C183.178 104.216 184.151 105.984 184.865 107.861C186.935 113.264 163.854 121.847 151.255 111.897C151.759 108.772 152.559 105.522 153.277 102.61C154.263 98.5735 155.105 95.1718 154.822 93.5917C151.2 82.4344 150.979 80.4265 151.621 77.9356C153.428 70.9321 160.591 66.2056 162.329 66.2056L171.582 66.4678Z" fill="#625BE9"/>
<path d="M171.582 66.4678C171.582 66.4678 179.655 67.1578 181.242 67.9237C182.829 68.6896 185.458 73.2229 183.098 79.84C180.739 86.4571 178.607 94.2265 178.848 95.7928C179.09 97.3591 184.713 105.453 184.713 105.453C183.078 106.508 181.346 107.606 179.538 107.937L176.64 101.623L177.33 108.309C177.33 108.309 172.148 109.565 168.443 109.248C168.436 109.248 165.697 83.5936 171.582 66.4678Z" fill="#455A64"/>
<path d="M151.11 64.0595H164.469C166.558 64.0595 168.627 63.6479 170.558 62.8483C172.488 62.0487 174.242 60.8767 175.72 59.3991C177.197 57.9216 178.369 56.1676 179.169 54.2371C179.968 52.3067 180.38 50.2376 180.38 48.1481C180.378 44.2672 178.836 40.5458 176.091 37.8017C173.347 35.0575 169.626 33.515 165.745 33.5132C163.823 33.5132 161.92 33.8917 160.144 34.6272C158.369 35.3627 156.756 36.4407 155.397 37.7996C154.038 39.1586 152.96 40.772 152.224 42.5475C151.489 44.3231 151.11 46.2262 151.11 48.1481V64.0595Z" fill="#263238"/>
<path d="M156.706 40.1235C155.154 41.0343 153.256 44.9535 153.435 53.0748C153.594 59.9748 155.837 61.686 156.961 62.1828C158.086 62.6796 160.253 62.376 162.357 62.0241V66.1641C162.357 66.1641 159.445 69.5451 159.597 71.4495C159.749 73.3539 163.799 73.7955 166.497 71.9394C169.195 70.0833 171.52 66.4608 171.52 66.4608L171.479 56.9319C171.479 56.9319 172.714 58.1325 174.819 56.2971C176.557 54.7791 177.144 52.2192 175.791 50.8392C175.44 50.5101 175.016 50.2694 174.553 50.137C174.09 50.0047 173.602 49.9846 173.13 50.0783C172.658 50.1721 172.215 50.377 171.838 50.6761C171.461 50.9753 171.16 51.3599 170.961 51.7983C170.961 51.7983 169.788 48.5484 164.931 46.9683C160.618 45.54 158.238 43.884 156.706 40.1235Z" fill="#FFA8A7"/>
<path d="M161.336 51.06C161.335 51.2305 161.384 51.3975 161.477 51.5403C161.57 51.6831 161.703 51.7955 161.859 51.8634C162.015 51.9313 162.188 51.9517 162.356 51.9222C162.524 51.8926 162.679 51.8144 162.803 51.6972C162.927 51.58 163.013 51.429 163.052 51.263C163.091 51.097 163.08 50.9233 163.02 50.7635C162.961 50.6037 162.856 50.4649 162.719 50.3643C162.581 50.2636 162.417 50.2056 162.247 50.1975C162.012 50.1919 161.784 50.2795 161.614 50.4411C161.443 50.6026 161.343 50.8251 161.336 51.06Z" fill="#263238"/>
<path d="M160.915 57.1938L158.9 57.8355C158.936 57.971 158.998 58.0978 159.084 58.2083C159.17 58.3188 159.278 58.4107 159.401 58.4784C159.523 58.5462 159.658 58.5883 159.797 58.6023C159.937 58.6164 160.078 58.602 160.211 58.56C160.483 58.4684 160.708 58.2745 160.84 58.0195C160.971 57.7645 160.998 57.4684 160.915 57.1938Z" fill="#F28F8F"/>
<path d="M154.305 48.9899L156.064 47.7686C155.991 47.6504 155.894 47.5484 155.78 47.4689C155.666 47.3893 155.537 47.334 155.4 47.3062C155.264 47.2784 155.123 47.2788 154.987 47.3073C154.851 47.3358 154.722 47.3918 154.608 47.4719C154.373 47.638 154.21 47.888 154.154 48.1704C154.097 48.4528 154.151 48.7462 154.305 48.9899Z" fill="#263238"/>
<path d="M163.675 49.3141L161.916 48.0928C161.99 47.9751 162.088 47.8737 162.203 47.7947C162.318 47.7157 162.447 47.6607 162.584 47.633C162.72 47.6053 162.861 47.6054 162.998 47.6335C163.134 47.6615 163.264 47.7168 163.378 47.7961C163.613 47.9632 163.774 48.2137 163.829 48.496C163.884 48.7784 163.829 49.0712 163.675 49.3141Z" fill="#263238"/>
<path d="M154.767 50.8667C154.766 51.0368 154.815 51.2035 154.908 51.3461C155 51.4888 155.133 51.601 155.289 51.6691C155.445 51.7371 155.617 51.7579 155.785 51.7289C155.952 51.6998 156.108 51.6222 156.232 51.5057C156.356 51.3892 156.443 51.2389 156.482 51.0734C156.522 50.9079 156.512 50.7344 156.453 50.5746C156.395 50.4147 156.291 50.2755 156.155 50.1741C156.018 50.0727 155.855 50.0136 155.685 50.0042C155.449 49.9986 155.221 50.0859 155.049 50.2473C154.877 50.4087 154.776 50.6312 154.767 50.8667Z" fill="#263238"/>
<path d="M158.955 50.2109L158.817 55.4411L156.064 54.5855L158.955 50.2109Z" fill="#F28F8F"/>
<path d="M162.357 62.0242C164.579 61.7275 169.154 60.4165 169.864 58.5742C169.578 59.4875 169.019 60.2916 168.264 60.8788C166.884 62.0518 162.357 63.3697 162.357 63.3697V62.0242Z" fill="#F28F8F"/>
<path d="M192.158 97.98C192.793 94.1712 192.158 92.9292 190.813 89.1963L183.326 93.5709C183.326 93.5709 184.423 96.3792 184.334 97.98C184.271 99.0702 182.781 109.979 181.373 113.781C181.119 114.452 180.628 115.006 179.993 115.34C178.289 116.251 177.558 117.252 176.247 118.452C175.212 119.391 174.377 119.584 174.48 119.915C174.642 120.281 174.936 120.572 175.303 120.731C175.67 120.89 176.084 120.904 176.461 120.771C177.301 120.502 178.107 120.137 178.862 119.68C178.194 121.116 177.299 122.434 176.212 123.586C173.735 126.229 173.514 127.947 178.13 128.305C181.015 128.526 183.45 126.925 186.059 120.715C186.871 118.432 187.539 116.1 188.06 113.733C189.453 108.261 191.516 101.803 192.158 97.98Z" fill="#FFA8A7"/>
<path d="M181.235 67.9233C184.485 69.3861 185.582 72.1944 187.259 76.6035C188.825 80.7435 192.296 93.3912 192.296 93.3912C192.296 93.3912 188.363 97.2759 183.851 96.1512L178.096 82.1097C178.096 82.1097 175.391 72.9327 181.235 67.9233Z" fill="#37474F"/>
<path d="M64.6462 254.306C64.1563 254.493 63.8734 255.424 63.6526 257.694C63.5146 259.074 63.0385 260.958 65.1844 262.096C65.9688 262.501 66.8401 262.708 67.7227 262.7C68.6053 262.691 69.4725 262.468 70.249 262.048C72.1051 260.896 72.6847 258.267 74.8651 256.528C76.7764 255.031 79.8469 253.533 80.9164 251.222C81.7996 249.318 81.7996 246.592 78.6325 246.737C74.7754 246.916 72.5881 249.959 69.973 250.021C68.5102 250.077 65.143 254.127 64.6462 254.306Z" fill="#263238"/>
<path d="M64.6531 253.188V255.479C64.6531 256.597 69.4141 258.239 70.7458 255.707C70.8493 255.486 71.3668 252.354 71.3668 252.354L64.6531 253.188Z" fill="#FFBDA7"/>
<path d="M86.7125 267.637C86.7125 267.637 85.8086 267.637 85.4567 271.329C85.3187 272.709 84.9806 275.621 85.4567 276.669C85.9328 277.718 88.541 278.174 91.4597 278.436C93.6401 278.629 95.5997 279.685 97.6214 280.823C99.5325 281.901 101.679 282.494 103.873 282.548C106.633 282.548 108.972 282.272 110.938 280.713C111.987 279.885 113.312 278.139 112.318 276.828C111.914 276.428 111.4 276.156 110.842 276.048C109.614 275.593 108.378 275.172 107.123 274.779C105.251 274.228 103.424 273.536 101.658 272.709C99.0842 271.439 96.2138 270.018 94.268 267.844L86.7125 267.637Z" fill="#263238"/>
<path d="M86.7263 265.726C86.7263 265.726 86.7263 267.423 86.7263 268.396C86.7263 269.369 87.8579 270.818 90.8249 270.728C92.8949 270.666 94.3646 270.114 94.2749 268.396V265.919L86.7263 265.726Z" fill="#FFBDA7"/>
<path d="M63.3214 222.801C63.8471 218.75 64.7716 214.761 66.0814 210.891C66.0814 210.891 65.3155 200.597 64.9774 190.84C64.6714 180.843 64.9502 170.837 65.8123 160.873C65.8123 160.873 98.9323 157.727 99.505 169.912C100.078 182.098 99.2635 213.086 98.815 218.433C98.3665 223.781 97.9594 228.783 96.8278 238.747C95.8549 247.316 94.2817 265.919 94.2817 265.919C93.0989 266.516 91.7868 266.81 90.4624 266.777C89.138 266.743 87.8425 266.382 86.6917 265.726C86.6917 265.726 84.1939 240.748 83.9317 234.579C83.5591 226.575 85.429 222.159 85.429 222.159C85.429 222.159 84.739 217.129 83.4832 206.779C82.6138 199.465 81.4546 191.137 81.4546 191.137C81.4546 191.137 80.323 201.445 79.633 207.193C78.9982 212.52 77.9149 216.729 76.3141 226.658C74.9341 235.276 71.146 253.506 71.146 253.506C67.2475 255.576 64.6393 253.188 64.6393 253.188C64.6393 253.188 62.2312 230.273 63.3214 222.801Z" fill="#37474F"/>
<path d="M81.4685 191.13L79.9022 180.959C79.9022 180.959 73.4507 178.889 70.1663 175.066C70.1663 175.066 71.9189 179.538 77.9288 181.966L80.3369 190.536L80.7509 197.609L81.4685 191.13Z" fill="#263238"/>
<path d="M72.6295 120.06C67.4614 118.811 64.1908 121.315 62.2795 128.34C60.6442 134.37 58.2499 146.845 57.3184 151.503C56.9734 153.228 56.2972 155.208 59.9266 157.382C65.1897 160.427 70.6219 163.171 76.1968 165.6L78.184 158.168L70.1662 141.726L72.6295 120.06Z" fill="#625BE9"/>
<path opacity="0.25" d="M72.6295 120.06C67.4614 118.811 64.1908 121.315 62.2795 128.34C60.6442 134.37 58.2499 146.845 57.3184 151.503C56.9734 153.228 56.2972 155.208 59.9266 157.382C65.1897 160.427 70.6219 163.171 76.1968 165.6L78.184 158.168L70.1662 141.726L72.6295 120.06Z" fill="black"/>
<path d="M86.9126 116.755L85.367 127.636L75.5759 127.298L76.5212 114.588L86.9126 116.755Z" fill="#FFBDA7"/>
<path d="M93.9368 103.327C93.9368 103.327 96.5657 107.177 96.2759 107.564C95.9861 107.95 94.1093 108.323 94.1093 108.323L93.9368 103.327Z" fill="#F0997A"/>
<path d="M89.8312 102.692C89.8217 102.061 89.9998 101.44 90.3428 100.91C90.6859 100.379 91.1786 99.9622 91.7586 99.7116C92.3387 99.4611 92.9799 99.3881 93.6014 99.502C94.2229 99.6159 94.7966 99.9116 95.2501 100.352C95.7036 100.791 96.0164 101.356 96.149 101.974C96.2817 102.592 96.2281 103.235 95.9952 103.822C95.7623 104.409 95.3605 104.914 94.8406 105.273C94.3206 105.632 93.7059 105.829 93.0742 105.839C92.6546 105.845 92.2379 105.769 91.8479 105.614C91.4578 105.459 91.1021 105.229 90.8009 104.937C90.4998 104.645 90.2591 104.296 90.0927 103.911C89.9263 103.526 89.8375 103.112 89.8312 102.692ZM90.5212 102.692C90.5294 103.184 90.6831 103.661 90.9629 104.065C91.2426 104.469 91.6358 104.781 92.0928 104.961C92.5497 105.141 93.0499 105.182 93.53 105.078C94.0102 104.975 94.4488 104.731 94.7903 104.378C95.1318 104.024 95.361 103.578 95.4488 103.095C95.5366 102.611 95.4791 102.113 95.2836 101.662C95.0881 101.211 94.7634 100.829 94.3505 100.563C93.9375 100.297 93.455 100.159 92.9638 100.167C92.3098 100.183 91.6886 100.457 91.2352 100.928C90.7817 101.4 90.5326 102.031 90.5419 102.685L90.5212 102.692Z" fill="#263238"/>
<path d="M86.6503 92.6739C91.8529 93.6882 93.3916 95.9445 94.0057 104.183C94.6543 112.787 93.8194 115.506 92.7085 116.686C91.9564 117.479 87.7129 117.686 85.5601 117.134C82.8691 116.444 76.7764 114.374 73.8715 110.096C70.4215 105.052 69.4693 98.1594 72.9952 95.2683C77.9701 91.1973 84.532 92.2668 86.6503 92.6739Z" fill="#FFBDA7"/>
<path d="M86.8296 117.355C89.0721 117.596 92.0805 117.355 92.7084 116.665C90.2037 116.824 87.1332 115.568 87.1332 115.568L86.8296 117.355Z" fill="#F0997A"/>
<path d="M94.813 94.7506L94.6543 94.9162C93.6262 95.9236 92.3014 96.5722 91.2043 97.5244C90.0343 98.5847 89.1997 99.9637 88.8031 101.492C88.465 102.748 88.3477 104.252 86.9953 104.832C86.9953 104.832 86.0845 101.513 83.2831 101.975C80.4817 102.437 80.1436 106.053 81.9583 108.185C83.773 110.317 85.4083 109.475 85.4083 109.475C85.4083 109.475 85.4083 114.243 83.3383 116.969C83.3383 116.969 80.9509 117.783 76.5211 116.913C73.7611 116.375 69.904 113.049 68.2411 109.482C64.7083 101.934 64.3633 95.1025 69.1795 92.9704C69.6487 89.4652 72.3811 87.8506 75.5137 87.0778C80.1988 85.9255 84.6424 88.6441 89.2723 87.5332C90.2452 87.2986 91.1836 86.9329 92.1703 86.7949C92.2808 86.7637 92.3979 86.7637 92.5084 86.7949C92.7499 86.9122 92.7361 87.2503 92.674 87.4849C92.4371 88.4206 91.9806 89.2863 91.3423 90.0103C93.1258 90.0879 94.9083 89.8353 96.6001 89.2651C96.7247 90.2547 96.6292 91.2595 96.3202 92.2078C96.0113 93.1561 95.4966 94.0244 94.813 94.7506Z" fill="#263238"/>
<path d="M69.8833 94.6956L66.7507 92.9154C66.8676 92.7097 67.0239 92.529 67.2106 92.3837C67.3973 92.2384 67.6108 92.1313 67.8389 92.0685C68.067 92.0057 68.3052 91.9885 68.54 92.0178C68.7747 92.047 69.0014 92.1223 69.2071 92.2392C69.4128 92.356 69.5935 92.5123 69.7388 92.699C69.8841 92.8857 69.9912 93.0992 70.054 93.3273C70.1168 93.5554 70.134 93.7936 70.1047 94.0284C70.0755 94.2632 70.0002 94.4899 69.8833 94.6956Z" fill="#263238"/>
<path d="M87.0644 106.695L86.9126 103.093C87.1491 103.083 87.3852 103.12 87.6076 103.201C87.8299 103.282 88.034 103.407 88.2083 103.567C88.3825 103.727 88.5236 103.92 88.6233 104.135C88.723 104.349 88.7794 104.581 88.7894 104.818C88.7994 105.054 88.7627 105.291 88.6814 105.513C88.6001 105.735 88.4758 105.939 88.3156 106.114C88.1554 106.288 87.9625 106.429 87.7478 106.529C87.5331 106.628 87.3009 106.685 87.0644 106.695Z" fill="#263238"/>
<path d="M95.9102 101.934L86.2778 103.334L86.678 104.004L95.924 102.658L95.9102 101.934Z" fill="#263238"/>
<path d="M64.7704 125.752C65.9158 121.281 67.5304 119.825 71.4151 119.722C73.4204 119.858 75.4157 120.114 77.3905 120.488C77.7976 122.371 82.6759 123.655 87.6094 122.633C89.0791 123.061 92.9638 124.124 94.1782 124.565C97.6696 125.828 99.367 129.458 99.5947 140.967C99.5947 140.967 100.285 168.263 99.5947 172.976C90.7903 176.426 81.6547 176.253 76.6039 175.129C66.1021 172.776 64.8739 168.408 64.8739 168.408C64.8739 168.408 65.4259 157.451 65.7778 149.123C65.2534 143.816 64.4599 139.828 64.177 135.592C63.9183 132.3 64.118 128.989 64.7704 125.752Z" fill="#625BE9"/>
<path d="M124.359 123.869C125.208 121.716 126.429 117.88 128.457 115.258C130.486 112.636 131.217 110.71 131.997 111.856C133.046 113.374 130.679 116.41 131.204 116.686C131.728 116.962 133.701 120.985 133.902 123.206C134.102 125.428 128.216 131.017 128.216 131.017L124.359 123.869Z" fill="#FFBDA7"/>
<path d="M94.1781 124.566C95.9764 124.911 97.6588 125.704 99.0702 126.87C101.52 128.94 113.884 138.6 113.884 138.6L124.993 122.489L130.431 128.747C130.431 128.747 122.289 144.244 118.88 150.04C117.817 151.855 115.126 152.193 110.483 149.516C106.619 147.287 93.9228 139.318 93.9228 139.318C93.9228 139.318 90.7557 130.106 94.1781 124.566Z" fill="#FFBDA7"/>
<path d="M93.5089 124.338C94.7922 124.411 96.0477 124.742 97.2004 125.311C99.0427 126.249 113.885 138.324 113.885 138.324L117.673 133.128C120.729 133.901 122.972 135.302 125.318 138.386C125.318 138.386 121.178 147.225 119.439 150.199C117.7 153.173 116.196 152.531 112.898 151.11C109.6 149.688 95.9998 141.726 95.9998 141.726C95.9998 141.726 92.1289 139.083 91.5217 134.667C90.3901 126.27 93.5089 124.338 93.5089 124.338Z" fill="#625BE9"/>
<path opacity="0.1" d="M93.5089 124.338C94.7922 124.411 96.0477 124.742 97.2004 125.311C99.0427 126.249 113.885 138.324 113.885 138.324L117.673 133.128C120.729 133.901 122.972 135.302 125.318 138.386C125.318 138.386 121.178 147.225 119.439 150.199C117.7 153.173 116.196 152.531 112.898 151.11C109.6 149.688 95.9998 141.726 95.9998 141.726C95.9998 141.726 92.1289 139.083 91.5217 134.667C90.3901 126.27 93.5089 124.338 93.5089 124.338Z" fill="black"/>
<path opacity="0.1" d="M113.885 138.324C114.991 139.401 116.039 140.537 117.024 141.726C117.024 141.726 116.941 139.601 114.54 137.427L113.885 138.324Z" fill="black"/>
<path d="M117.673 133.129L119.605 130.327C121.208 130.579 122.733 131.195 124.062 132.128C125.289 132.9 126.3 133.971 127.001 135.24L125.318 138.386C123.265 136.004 120.632 134.193 117.673 133.129Z" fill="#625BE9"/>
<path opacity="0.25" d="M117.673 133.129L119.605 130.327C121.208 130.579 122.733 131.195 124.062 132.128C125.289 132.9 126.3 133.971 127.001 135.24L125.318 138.386C123.265 136.004 120.632 134.193 117.673 133.129Z" fill="black"/>
<path d="M125.835 135.592C125.835 135.729 125.781 135.861 125.684 135.958C125.587 136.055 125.455 136.109 125.318 136.109C125.181 136.109 125.049 136.055 124.952 135.958C124.855 135.861 124.8 135.729 124.8 135.592C124.8 135.454 124.855 135.323 124.952 135.226C125.049 135.129 125.181 135.074 125.318 135.074C125.455 135.074 125.587 135.129 125.684 135.226C125.781 135.323 125.835 135.454 125.835 135.592Z" fill="#455A64"/>
<path d="M76.2934 117.659L76.2106 118.707C76.2106 118.707 76.7281 120.184 79.6606 120.736C84.6562 121.667 86.4019 120.115 86.4019 120.115L86.5261 119.218C86.5261 119.218 87.0091 119.018 87.8164 119.639C89.0454 120.92 90.1975 122.272 91.2664 123.689C91.2664 123.689 90.3142 123.406 87.1954 124.738C84.0808 125.949 80.6493 126.078 77.4526 125.104C76.5625 124.807 75.7659 124.282 75.1423 123.581C74.5187 122.88 74.0901 122.027 73.8991 121.109C73.8301 120.198 75.4309 117.3 76.2934 117.659Z" fill="#625BE9"/>
<path opacity="0.25" d="M76.2934 117.659L76.2106 118.707C76.2106 118.707 76.7281 120.184 79.6606 120.736C84.6562 121.667 86.4019 120.115 86.4019 120.115L86.5261 119.218C86.5261 119.218 87.0091 119.018 87.8164 119.639C89.0454 120.92 90.1975 122.272 91.2664 123.689C91.2664 123.689 90.3142 123.406 87.1954 124.738C84.0808 125.949 80.6493 126.078 77.4526 125.104C76.5625 124.807 75.7659 124.282 75.1423 123.581C74.5187 122.88 74.0901 122.027 73.8991 121.109C73.8301 120.198 75.4309 117.3 76.2934 117.659Z" fill="black"/>
<path d="M131.038 116.369C131.038 116.369 138.152 115.755 139.194 116.369C140.236 116.983 139.918 120.06 139.194 121.951C138.469 123.841 134.84 125.07 131.473 127.347C131.466 127.008 131.038 116.369 131.038 116.369Z" fill="#FFBDA7"/>
<path d="M131.473 127.333C132.853 126.318 132.853 125.076 133.142 123.096C133.432 121.116 138.849 118.956 139.021 120.46C139.194 121.965 139.711 123.172 138.014 124.959C136.316 126.746 133.964 128.664 131.473 127.333Z" fill="#FFA8A7"/>
<path d="M131.852 114.588C130.555 116.272 130.334 118.259 129.651 119.356C128.968 120.453 127.926 121.716 129.43 121.916C130.934 122.116 132.763 120.157 133.57 118.37C133.988 117.364 134.772 116.555 135.764 116.106C135.074 115.865 135.426 113.029 134.93 112.656C134.95 112.643 132.39 113.684 131.852 114.588Z" fill="#FFA8A7"/>
</svg>
